<svg aria-hidden="true" xmlns="http://www.w3.org/2000/svg" xmlns:xlink="http://www.w3.org/1999/xlink"><symbol viewBox="0 0 20 21" fill="none" id="add" xmlns="http://www.w3.org/2000/svg">
<g clip-path="url(#aclip0_41_394)">
<path d="M10 0.5C8.02219 0.5 6.08879 1.08649 4.4443 2.1853C2.79981 3.28412 1.51809 4.8459 0.761209 6.67317C0.00433286 8.50043 -0.193701 10.5111 0.192152 12.4509C0.578004 14.3907 1.53041 16.1725 2.92894 17.5711C4.32746 18.9696 6.10929 19.922 8.0491 20.3079C9.98891 20.6937 11.9996 20.4957 13.8268 19.7388C15.6541 18.9819 17.2159 17.7002 18.3147 16.0557C19.4135 14.4112 20 12.4778 20 10.5C19.9971 7.84872 18.9426 5.30684 17.0679 3.4321C15.1932 1.55736 12.6513 0.502868 10 0.5ZM10 18.8333C8.35183 18.8333 6.74066 18.3446 5.37025 17.4289C3.99984 16.5132 2.93174 15.2117 2.30101 13.689C1.67028 12.1663 1.50525 10.4908 1.82679 8.87425C2.14834 7.25774 2.94201 5.77288 4.10745 4.60744C5.27289 3.44201 6.75774 2.64833 8.37425 2.32679C9.99076 2.00525 11.6663 2.17027 13.189 2.801C14.7118 3.43173 16.0132 4.49984 16.9289 5.87025C17.8446 7.24066 18.3333 8.85182 18.3333 10.5C18.3309 12.7094 17.4522 14.8276 15.8899 16.3899C14.3276 17.9522 12.2094 18.8309 10 18.8333ZM14.1667 10.5C14.1667 10.721 14.0789 10.933 13.9226 11.0893C13.7663 11.2455 13.5544 11.3333 13.3333 11.3333H10.8333V13.8333C10.8333 14.0543 10.7455 14.2663 10.5893 14.4226C10.433 14.5789 10.221 14.6667 10 14.6667C9.77899 14.6667 9.56703 14.5789 9.41075 14.4226C9.25447 14.2663 9.16667 14.0543 9.16667 13.8333V11.3333H6.66667C6.44566 11.3333 6.2337 11.2455 6.07742 11.0893C5.92113 10.933 5.83334 10.721 5.83334 10.5C5.83334 10.279 5.92113 10.067 6.07742 9.91074C6.2337 9.75447 6.44566 9.66667 6.66667 9.66667H9.16667V7.16667C9.16667 6.94565 9.25447 6.73369 9.41075 6.57741C9.56703 6.42113 9.77899 6.33333 10 6.33333C10.221 6.33333 10.433 6.42113 10.5893 6.57741C10.7455 6.73369 10.8333 6.94565 10.8333 7.16667V9.66667H13.3333C13.5544 9.66667 13.7663 9.75447 13.9226 9.91074C14.0789 10.067 14.1667 10.279 14.1667 10.5Z" fill="currentColor"/>
</g>
<defs>
<clipPath id="aclip0_41_394">
<rect width="20" height="20" fill="currentColor" transform="translate(0 0.5)"/>
</clipPath>
</defs>
</symbol><symbol viewBox="0 0 20 20" fill="none" id="addImage" xmlns="http://www.w3.org/2000/svg">
<g clip-path="url(#bclip0_41_504)">
<path d="M10 17.5C10 17.9608 9.62667 18.3333 9.16667 18.3333H4.16667C1.86917 18.3333 0 16.4642 0 14.1667V4.16667C0 1.86917 1.86917 0 4.16667 0H14.1667C16.4642 0 18.3333 1.86917 18.3333 4.16667V9.16667C18.3333 9.6275 17.96 10 17.5 10C17.04 10 16.6667 9.6275 16.6667 9.16667V4.16667C16.6667 2.78833 15.545 1.66667 14.1667 1.66667H4.16667C2.78833 1.66667 1.66667 2.78833 1.66667 4.16667V9.96583L4.00667 7.62583C5.28333 6.34833 7.36083 6.34833 8.63833 7.62583L13.0892 12.0767C13.415 12.4025 13.415 12.9292 13.0892 13.255C12.9267 13.4175 12.7133 13.4992 12.5 13.4992C12.2867 13.4992 12.0733 13.4175 11.9108 13.255L7.46 8.80417C6.83333 8.17833 5.81333 8.1775 5.185 8.80417L1.66667 12.3225V14.1667C1.66667 15.545 2.78833 16.6667 4.16667 16.6667H9.16667C9.62667 16.6667 10 17.0392 10 17.5ZM12.5 2.91667C13.8783 2.91667 15 4.03833 15 5.41667C15 6.795 13.8783 7.91667 12.5 7.91667C11.1217 7.91667 10 6.795 10 5.41667C10 4.03833 11.1217 2.91667 12.5 2.91667ZM12.5 4.58333C12.0408 4.58333 11.6667 4.95667 11.6667 5.41667C11.6667 5.87667 12.0408 6.25 12.5 6.25C12.9592 6.25 13.3333 5.87667 13.3333 5.41667C13.3333 4.95667 12.9592 4.58333 12.5 4.58333ZM19.1667 15H16.6667V12.5C16.6667 12.0392 16.2933 11.6667 15.8333 11.6667C15.3733 11.6667 15 12.0392 15 12.5V15H12.5C12.04 15 11.6667 15.3725 11.6667 15.8333C11.6667 16.2942 12.04 16.6667 12.5 16.6667H15V19.1667C15 19.6275 15.3733 20 15.8333 20C16.2933 20 16.6667 19.6275 16.6667 19.1667V16.6667H19.1667C19.6267 16.6667 20 16.2942 20 15.8333C20 15.3725 19.6267 15 19.1667 15Z" fill="currentColor"/>
</g>
<defs>
<clipPath id="bclip0_41_504">
<rect width="20" height="20" fill="currentColor"/>
</clipPath>
</defs>
</symbol><symbol viewBox="0 0 25 25" fill="none" id="arrowLeft" xmlns="http://www.w3.org/2000/svg">
<g clip-path="url(#cclip0_2016_1428)">
<path d="M12.1973 22.5439C12.793 21.9482 13.2812 21.4355 13.2812 21.4111C13.2812 21.3867 11.6406 19.7217 9.63379 17.7148L5.98144 14.0625L15.4932 14.0625L25 14.0625L25 12.5L25 10.9375L15.4932 10.9375L5.98144 10.9375L9.63379 7.28515C11.6406 5.27832 13.2812 3.61328 13.2812 3.58887C13.2812 3.55957 12.793 3.05176 12.1924 2.45117L11.1084 1.36719L5.54199 6.93359L-0.024415 12.5L5.54199 18.0664L11.1084 23.6328L12.1973 22.5439Z" fill="currentColor"/>
</g>
<defs>
<clipPath id="cclip0_2016_1428">
<rect width="25" height="25" fill="currentColor" transform="translate(25 25) rotate(-180)"/>
</clipPath>
</defs>
</symbol><symbol viewBox="0 0 25 25" fill="none" id="arrowRight" xmlns="http://www.w3.org/2000/svg">
<g clip-path="url(#dclip0_2016_1432)">
<path d="M12.8027 2.45606C12.207 3.05176 11.7188 3.56446 11.7188 3.58887C11.7188 3.61328 13.3594 5.27832 15.3662 7.28516L19.0186 10.9375L9.50684 10.9375L2.21972e-06 10.9375L1.94652e-06 12.5L1.67333e-06 14.0625L9.50684 14.0625L19.0186 14.0625L15.3662 17.7148C13.3594 19.7217 11.7188 21.3867 11.7188 21.4111C11.7188 21.4404 12.207 21.9482 12.8076 22.5488L13.8916 23.6328L19.458 18.0664L25.0244 12.5L19.458 6.9336L13.8916 1.36719L12.8027 2.45606Z" fill="currentColor"/>
</g>
<defs>
<clipPath id="dclip0_2016_1432">
<rect width="25" height="25" fill="currentColor"/>
</clipPath>
</defs>
</symbol><symbol viewBox="0 0 20 20" fill="none" id="arrowTop" xmlns="http://www.w3.org/2000/svg">
<path d="M5.28125 1.32812C5.09375 1.44531 5 1.62109 5 1.875C5 2.12891 5.09375 2.30469 5.28125 2.42188C5.41016 2.5 5.49219 2.5 10.9961 2.5H16.582L8.96094 10.125C4.76562 14.3203 1.31641 17.793 1.29297 17.8398C1.26953 17.8867 1.25 18.0195 1.25 18.1328C1.25 18.5117 1.48828 18.75 1.86719 18.75C1.98047 18.75 2.11328 18.7305 2.16016 18.707C2.20703 18.6836 5.67969 15.2344 9.875 11.0391L17.5 3.41797V9.00391C17.5 14.5078 17.5 14.5898 17.5781 14.7188C17.6953 14.9062 17.8711 15 18.125 15C18.3789 15 18.5547 14.9062 18.6719 14.7188C18.75 14.5898 18.75 14.5078 18.75 8.125C18.75 1.74219 18.75 1.66016 18.6719 1.53125C18.6289 1.46094 18.5391 1.37109 18.4688 1.32812C18.3398 1.25 18.2578 1.25 11.875 1.25C5.49219 1.25 5.41016 1.25 5.28125 1.32812Z" fill="currentColor"/>
</symbol><symbol viewBox="0 0 35 35" fill="none" id="car" xmlns="http://www.w3.org/2000/svg">
<path d="M9.0893 5.67559C8.67664 5.82565 8.2865 6.08075 8.09142 6.34335C7.99388 6.4784 7.38615 7.54381 6.7334 8.72175C6.08066 9.8997 5.46542 11.0026 5.36788 11.1827L5.18031 11.4978L5.01525 11.2577C4.92522 11.1227 4.73764 10.9351 4.60259 10.8451C4.3625 10.68 4.27997 10.6725 2.91445 10.6725C1.61646 10.6725 1.4589 10.6875 1.23381 10.8226C0.768632 11.1077 0.693604 11.3328 0.693604 12.5182C0.693604 13.4936 0.708609 13.5986 0.866169 13.8237C1.12127 14.2063 1.45139 14.3639 2.08914 14.4089L2.64435 14.4464L2.38175 14.7315C2.01411 15.1367 1.83404 15.5343 1.744 16.1271C1.69148 16.4647 1.66898 18.618 1.68398 22.4145L1.70649 28.1917L1.87155 28.5068C2.07413 28.8894 2.48679 29.2271 2.86193 29.3471C3.042 29.3996 3.8298 29.4296 5.01525 29.4296C6.82344 29.4296 6.89847 29.4221 7.26611 29.2496C7.92636 28.942 8.18146 28.4843 8.24898 27.5014L8.294 26.8787H8.5641C8.71416 26.8787 9.6145 26.9312 10.5599 26.9912C15.8569 27.3213 19.6083 27.2988 25.9107 26.9087L26.706 26.8562L26.751 27.4939C26.7735 27.839 26.8486 28.2667 26.9236 28.4468C27.0737 28.8219 27.5163 29.2196 27.9215 29.3396C28.3116 29.4597 31.7479 29.4597 32.1381 29.3471C32.5132 29.2271 32.9259 28.8894 33.1285 28.5068L33.2935 28.1917L33.316 22.4145C33.331 18.618 33.3085 16.4647 33.256 16.1271C33.166 15.5343 32.9859 15.1367 32.6183 14.7315L32.3557 14.4464L32.9109 14.4089C33.5486 14.3639 33.8787 14.2063 34.1338 13.8237C34.2914 13.5986 34.3064 13.4936 34.3064 12.5182C34.3064 11.3328 34.2314 11.1077 33.7662 10.8226C33.5411 10.6875 33.3836 10.6725 32.0856 10.6725C30.72 10.6725 30.6375 10.68 30.3974 10.8451C30.2624 10.9351 30.0748 11.1227 29.9848 11.2577L29.8197 11.5053L29.4446 10.8451C29.242 10.4849 28.6117 9.34449 28.0415 8.3241C27.4713 7.29621 26.9311 6.36586 26.8411 6.25331C26.7435 6.14077 26.4884 5.9532 26.2633 5.83315L25.8657 5.60807L17.6125 5.59306C10.995 5.57806 9.30688 5.59306 9.0893 5.67559ZM25.7832 7.07113C26.0458 7.33373 28.8518 12.4057 28.7768 12.4732C28.7093 12.5332 26.0683 12.8033 24.3651 12.9234C20.2611 13.216 14.6414 13.216 10.6349 12.9234C8.84921 12.7958 6.28323 12.5332 6.22321 12.4732C6.16319 12.4207 8.91674 7.38625 9.15683 7.12365C9.22435 7.04111 9.3519 6.95108 9.43443 6.91357C9.51696 6.88355 13.1859 6.86105 17.59 6.86855L25.6031 6.88355L25.7832 7.07113ZM4.12991 12.2781C4.25746 12.5032 4.37 12.7133 4.37 12.7433C4.37 12.7733 4.29498 12.8783 4.20494 12.9759C4.04738 13.1409 3.99486 13.1484 2.96697 13.1484H1.89406V12.5107V11.873H2.89194H3.88232L4.12991 12.2781ZM33.1059 12.5107V13.1484H32.0405C31.0502 13.1484 30.9676 13.1334 30.8026 12.9834C30.705 12.8933 30.63 12.7883 30.63 12.7508C30.63 12.7133 30.7425 12.5032 30.8701 12.2781L31.1177 11.873H32.1081H33.1059V12.5107ZM6.54583 13.8162C9.62951 14.1988 11.9704 14.3414 16.0745 14.4014C20.9888 14.4689 25.0179 14.2664 28.8218 13.7787L29.6846 13.6661L30.7951 14.7766C31.808 15.7819 31.9055 15.9095 31.9805 16.2396C32.0255 16.4722 32.0555 18.1904 32.0555 20.8389V25.078L31.8905 25.108C31.4703 25.198 27.7714 25.4981 25.378 25.6332C20.8838 25.8958 19.9459 25.9333 17.1999 25.9333C14.3863 25.9258 12.7132 25.8658 9.39692 25.6407C7.40866 25.4981 3.34211 25.1605 3.11703 25.108L2.94446 25.078V20.8164C2.94446 18.2054 2.97447 16.4347 3.02699 16.2246C3.09452 15.932 3.23707 15.7519 4.20494 14.7766C4.81267 14.1688 5.32287 13.6736 5.34538 13.6736C5.36788 13.6736 5.90809 13.7412 6.54583 13.8162ZM5.89308 26.6536L6.996 26.7511V27.1863C6.996 27.6365 6.89847 27.9966 6.74841 28.0941C6.63587 28.1692 3.3121 28.1692 3.19956 28.0941C3.01949 27.9741 2.94446 27.6815 2.94446 27.0512V26.3835L3.86731 26.4735C4.37 26.5185 5.27785 26.6011 5.89308 26.6536ZM32.0555 27.0737C32.0555 27.6815 31.9805 27.9741 31.8005 28.0941C31.6879 28.1692 28.3641 28.1692 28.2516 28.0941C28.1015 27.9966 28.004 27.6365 28.004 27.1788V26.7436L28.7018 26.6911C29.0769 26.6611 29.8122 26.5936 30.3299 26.541C30.8476 26.4885 31.4478 26.4435 31.6654 26.436L32.0555 26.4285V27.0737Z" fill="currentColor"/>
<path d="M4.89531 17.9578C4.79027 18.0028 4.6252 18.1078 4.53517 18.1978C4.19004 18.5205 4.14502 18.708 4.14502 19.8035C4.14502 20.7788 4.15252 20.8539 4.32509 21.109C4.66272 21.6041 4.79027 21.6266 6.9811 21.6266C8.87932 21.6266 8.93184 21.6191 9.17944 21.4541C9.31449 21.364 9.50956 21.169 9.5996 21.0339C9.75716 20.8013 9.77216 20.6963 9.77216 19.811C9.77216 18.693 9.69713 18.4529 9.27697 18.1303L8.99937 17.9127L7.04112 17.8977C5.84067 17.8902 5.00785 17.9127 4.89531 17.9578ZM8.49668 19.7509V20.3512H6.95859H5.42051V19.7509V19.1507H6.95859H8.49668V19.7509Z" fill="currentColor"/>
<path d="M25.9408 17.9953C25.3256 18.3179 25.228 18.5655 25.228 19.811C25.228 20.6963 25.243 20.8013 25.4006 21.0339C25.4906 21.169 25.6857 21.364 25.8208 21.4541C26.0683 21.6191 26.1209 21.6266 28.0191 21.6266C30.2099 21.6266 30.3375 21.6041 30.6751 21.109C30.8477 20.8539 30.8552 20.7788 30.8552 19.7809C30.8552 18.8056 30.8402 18.7005 30.6901 18.4754C30.3 17.9127 30.315 17.9127 28.1316 17.8902C26.451 17.8752 26.1359 17.8902 25.9408 17.9953ZM29.5797 19.7509V20.3512H28.0416H26.5035V19.7509V19.1507H28.0416H29.5797V19.7509Z" fill="currentColor"/>
<path d="M12.5105 19.2933C12.1729 19.4433 11.7227 19.9085 11.5877 20.2386C11.5427 20.3662 11.3776 20.9889 11.2275 21.6267C10.9349 22.9021 10.9274 23.2698 11.19 23.7875C11.3851 24.1626 11.8578 24.5753 12.2404 24.6878C12.443 24.7553 13.9436 24.7779 17.5149 24.7779C23.2096 24.7779 22.962 24.8004 23.5322 24.1701C23.8549 23.81 24.0274 23.3823 24.0274 22.9397C24.0274 22.617 23.4947 20.4112 23.3522 20.1261C23.2771 19.9835 23.1046 19.7584 22.962 19.6234C22.4518 19.1357 22.6319 19.1507 17.4849 19.1507C13.1258 19.1507 12.7881 19.1657 12.5105 19.2933ZM22.0692 20.5537C22.1817 20.6513 22.2943 20.9739 22.4893 21.7992C22.6319 22.407 22.7519 22.9547 22.7519 23.0222C22.7519 23.0822 22.6694 23.2173 22.5644 23.3148L22.3843 23.5024H17.4999H12.6156L12.4355 23.3148C12.3305 23.2173 12.2479 23.0822 12.2479 23.0222C12.2479 22.9547 12.368 22.407 12.5105 21.7992C12.7056 20.9739 12.8182 20.6513 12.9307 20.5537C13.0808 20.4337 13.4109 20.4262 17.4999 20.4262C21.589 20.4262 21.9191 20.4337 22.0692 20.5537Z" fill="currentColor"/>
<path d="M4.61766 22.9171C4.26503 23.0897 4.21251 23.6449 4.52013 23.9525C4.66268 24.0951 4.78273 24.1026 6.91354 24.1026H9.1644L9.36697 23.9225C9.52453 23.7875 9.57705 23.6824 9.57705 23.4649C9.57705 23.2473 9.52453 23.1422 9.36697 23.0072L9.1644 22.8271L6.97356 22.8346C5.60054 22.8346 4.7227 22.8646 4.61766 22.9171Z" fill="currentColor"/>
<path d="M25.633 23.0072C25.3404 23.2548 25.3404 23.6749 25.633 23.9225L25.8356 24.1026H28.0865C30.2173 24.1026 30.3373 24.0951 30.4799 23.9525C30.795 23.6374 30.7275 23.0822 30.3598 22.9096C30.2323 22.8571 29.4595 22.8271 28.0039 22.8271H25.8356L25.633 23.0072Z" fill="currentColor"/>
</symbol><symbol viewBox="0 0 35 35" fill="none" id="checkOut" xmlns="http://www.w3.org/2000/svg">
<path d="M7.83398 1.54492C6.52148 1.86621 5.44824 2.9873 5.16113 4.34082C5.01074 5.05859 5.01074 29.9414 5.16113 30.6592C5.44824 32.0264 6.52832 33.1406 7.86816 33.4619C8.2373 33.5439 9.09863 33.5645 13.4053 33.5645C18.375 33.5645 18.5117 33.5576 18.6758 33.4277C19.0518 33.1338 19.0928 32.5732 18.7578 32.2588L18.5801 32.0947L13.4121 32.0605C8.29199 32.0264 8.2373 32.0264 7.91602 31.876C7.4375 31.6572 7.02051 31.2334 6.79492 30.7412L6.59668 30.3174V17.5V4.68262L6.79492 4.25879C7.02051 3.7666 7.4375 3.34277 7.91602 3.12402C8.2373 2.97363 8.2373 2.97363 14.834 2.95312C18.4639 2.93945 21.5332 2.95312 21.6562 2.97363L21.875 3.01465V5.39355C21.875 8.18262 21.8818 8.20996 22.4834 8.82519C23.1396 9.48828 23.2148 9.50195 26.0039 9.50195H28.3486L28.3965 9.85742C28.417 10.0557 28.4375 12.4141 28.4375 15.0937C28.4375 18.3066 28.4648 20.0156 28.5059 20.1045C28.5469 20.1729 28.6699 20.2822 28.7793 20.3369C29.21 20.5625 29.6885 20.3984 29.8662 19.9814C29.9277 19.8379 29.9414 18.416 29.9277 14.5264C29.9072 9.29687 29.9072 9.26269 29.7568 8.81836C29.6748 8.57226 29.5039 8.21679 29.3809 8.01855C29.0801 7.55371 23.9258 2.35156 23.4473 2.03027C23.2422 1.89355 22.8867 1.70898 22.6611 1.62695L22.251 1.46972L15.2441 1.45605C9.36523 1.44921 8.17578 1.46289 7.83398 1.54492ZM25.3613 6.03613L27.3096 8.00488L25.5459 7.98437L23.7754 7.96387L23.5771 7.73828L23.3789 7.51953V5.76269C23.3789 4.79883 23.3857 4.02637 23.3994 4.04004C23.4062 4.06054 24.2881 4.95605 25.3613 6.03613Z" fill="currentColor"/>
<path d="M9.70703 8.19629C9.48145 8.42188 9.39941 8.66797 9.46094 8.92773C9.48828 9.03027 9.59766 9.19434 9.70703 9.30371L9.89844 9.50195H14.2051C18.3818 9.50195 18.5117 9.49512 18.6758 9.36523C19.0723 9.05762 19.0928 8.4834 18.7236 8.17578L18.5117 7.99805H14.2051H9.89844L9.70703 8.19629Z" fill="currentColor"/>
<path d="M11.8945 12.5713C11.6689 12.7969 11.5869 13.043 11.6484 13.3027C11.6758 13.4053 11.7852 13.5693 11.8945 13.6787L12.0859 13.877H18.5801C24.9307 13.877 25.0742 13.877 25.2383 13.7402C25.6348 13.4326 25.6553 12.8584 25.2861 12.5508L25.0742 12.373H18.5801H12.0859L11.8945 12.5713Z" fill="currentColor"/>
<path d="M9.80273 16.126C9.38574 16.3789 9.33105 16.9395 9.68652 17.3086L9.87109 17.5H17.5H25.1289L25.3203 17.3086C25.5527 17.0557 25.6143 16.7002 25.4707 16.4199C25.2383 15.9688 25.7168 15.9961 17.4863 15.9961C10.2949 15.9961 10.0078 16.0029 9.80273 16.126Z" fill="currentColor"/>
<path d="M22.0118 18.9424C18.7647 19.1748 16.1875 21.834 16.0166 25.1289C15.8252 28.7041 18.3204 31.6504 21.8956 32.0674C22.8389 32.1768 23.7549 32.0742 24.7393 31.7461L25.4571 31.5069L26.9952 33.045C27.9795 34.0157 28.6495 34.6309 28.8477 34.7334C29.2715 34.9453 30.0713 34.9932 30.5499 34.8291C31.0967 34.6514 31.5342 34.2617 31.8008 33.7217C31.9922 33.3252 32.0264 33.1953 32.0264 32.7442C32.0196 31.8555 31.8965 31.6641 30.1124 29.8731L28.5743 28.335L28.752 27.8907C29.0801 27.0908 29.21 26.2637 29.169 25.2588C29.128 24.2266 28.9707 23.5635 28.5743 22.7158C28.1299 21.7725 27.5147 20.9727 26.7764 20.378C25.3956 19.2842 23.837 18.8125 22.0118 18.9424ZM23.3311 20.5147C24.9512 20.7676 26.3936 21.8135 27.1045 23.2627C27.5284 24.1309 27.6446 24.6162 27.6446 25.5323C27.6446 26.0928 27.6036 26.4209 27.4942 26.8174C27.0225 28.4854 25.7784 29.8047 24.1651 30.3311C23.3858 30.584 22.1895 30.6319 21.417 30.4336C20.378 30.167 19.3458 29.5244 18.71 28.7383C18.2725 28.1983 17.8145 27.2686 17.6709 26.626C17.5 25.8672 17.5547 24.6914 17.794 23.96C18.5665 21.6221 20.9385 20.1455 23.3311 20.5147ZM30.4883 32.6963C30.4883 33.1612 30.0987 33.4961 29.6885 33.4004C29.5655 33.3662 29.0118 32.8672 28.1504 32.0059L26.8038 30.666L27.2618 30.1807L27.7198 29.6953L29.1075 31.0694C30.4131 32.3682 30.4883 32.4571 30.4883 32.6963Z" fill="currentColor"/>
<path d="M19.2979 24.8828C19.0107 25.0537 18.9355 25.2109 18.9355 25.6484C18.9355 27.4873 20.6514 29.1895 22.4971 29.1895C22.9346 29.1895 23.167 29.0527 23.3105 28.7178C23.5293 28.1777 23.1807 27.7334 22.4902 27.665C21.9297 27.6035 21.499 27.4053 21.1094 27.0225C20.7334 26.6533 20.5283 26.2158 20.4668 25.6621C20.4395 25.4365 20.3916 25.2041 20.3574 25.1357C20.2686 24.9648 19.8926 24.7461 19.6875 24.7461C19.5918 24.7461 19.4209 24.8076 19.2979 24.8828Z" fill="currentColor"/>
<path d="M9.67968 19.879C9.44726 20.1319 9.38574 20.4874 9.52929 20.7676C9.74804 21.1915 9.79589 21.1983 12.4756 21.1778L14.8955 21.1573L15.1006 20.959C15.2783 20.7881 15.3125 20.7061 15.3125 20.419C15.3125 20.1456 15.2783 20.0567 15.1143 19.8858L14.916 19.6876H12.3936H9.87109L9.67968 19.879Z" fill="currentColor"/>
<path d="M9.70703 23.5088C9.48145 23.7344 9.39941 23.9805 9.46094 24.2402C9.48828 24.3428 9.59766 24.5068 9.70703 24.6162L9.89844 24.8145H11.6553H13.4121L13.6445 24.582C13.8359 24.3906 13.877 24.2949 13.877 24.0625C13.877 23.8301 13.8359 23.7344 13.6445 23.543L13.4121 23.3105H11.6553H9.89844L9.70703 23.5088Z" fill="currentColor"/>
<path d="M9.80273 27.0635C9.38574 27.3164 9.33105 27.877 9.68652 28.2461L9.87109 28.4375H12.0312H14.1914L14.3828 28.2461C14.6152 27.9932 14.6768 27.6377 14.5332 27.3574C14.3213 26.9473 14.2324 26.9336 12.0176 26.9336C10.1787 26.9336 9.99414 26.9473 9.80273 27.0635Z" fill="currentColor"/>
</symbol><symbol viewBox="0 0 25 25" fill="none" id="close" xmlns="http://www.w3.org/2000/svg">
<g clip-path="url(#hclip0_2217_669)">
<path d="M0.869141 0.869141L0 1.73828V2.00195V2.27051L5.1123 7.38281L10.2295 12.5L5.1123 17.6172L0 22.7295V22.998V23.2617L0.869141 24.1309L1.73828 25H2.00195H2.27051L7.38281 19.8877L12.5 14.7705L17.6172 19.8877L22.7295 25H22.998H23.2666L24.1309 24.1309L25 23.2568V22.9932V22.7295L19.8877 17.6172L14.7705 12.5L19.8877 7.38281L25 2.27051V2.00684V1.74316L24.1309 0.869141L23.2666 0H22.998H22.7295L17.6172 5.1123L12.5 10.2295L7.38281 5.1123L2.27051 0H2.00195H1.73828L0.869141 0.869141Z" fill="currentColor"/>
</g>
<defs>
<clipPath id="hclip0_2217_669">
<rect width="25" height="25" fill="currentColor"/>
</clipPath>
</defs>
</symbol><symbol viewBox="0 0 35 35" fill="none" id="delivery" xmlns="http://www.w3.org/2000/svg">
<g clip-path="url(#iclip0_1972_445)">
<path d="M2.82324 6.67877C2.43359 6.81549 1.87988 7.32135 1.6543 7.75201L1.46973 8.10065L1.44922 12.8858C1.43555 16.4131 1.45605 17.7188 1.51074 17.8624C1.70898 18.334 2.625 18.3819 2.84375 17.9307C2.87793 17.8624 2.91895 15.709 2.93945 13.1387L2.97363 8.46295L3.19922 8.26471L3.41797 8.06647H12.7217C22.8252 8.06647 22.2988 8.04596 22.4766 8.44244C22.5381 8.57232 22.5586 10.1172 22.5586 14.629V20.6446L22.3604 20.8633L22.1621 21.0889L17.4658 21.1231L12.7695 21.1573L12.5713 21.3829C12.2773 21.7042 12.291 22.0801 12.6055 22.3946L12.8379 22.627H17.5615C22.2031 22.627 22.2852 22.627 22.6748 22.4835C22.9619 22.3741 23.1738 22.2305 23.4473 21.9503C24.0898 21.294 24.0625 21.5333 24.0625 16.6592V12.4415H26.7627C29.709 12.4415 29.7568 12.4483 30.167 12.8379C30.2764 12.9405 30.4541 13.2003 30.5635 13.4122L30.7617 13.8087H29.1279C27.3438 13.8087 27.0771 13.8497 26.708 14.2051C26.5986 14.3077 26.4482 14.5059 26.3799 14.6495C26.25 14.8887 26.2432 15.0391 26.2637 16.8506L26.2842 18.7852L26.4893 19.0792C26.6055 19.2364 26.8311 19.4415 26.9951 19.5303L27.2959 19.6876H30.3516H33.4141L33.4551 19.8379C33.4756 19.9268 33.4961 20.8018 33.4961 21.7794C33.4961 24.1446 33.5645 24.0626 31.6436 24.0626H30.5703L30.5293 23.8301C30.502 23.7003 30.3721 23.3721 30.2354 23.0987C29.1416 20.9112 26.1064 20.4463 24.377 22.2032C23.9395 22.6475 23.7002 23.0303 23.5088 23.5909L23.3447 24.0626H17.5H11.6553L11.498 23.6045C11.2793 22.9962 10.9785 22.5313 10.4727 22.0665C8.72266 20.4532 5.82422 20.9727 4.76465 23.0987C4.62793 23.3721 4.49805 23.7003 4.4707 23.837L4.42285 24.0762L3.9375 24.0489C3.6709 24.0284 3.38379 23.9737 3.29492 23.919C3.06934 23.7823 2.93945 23.4405 2.93945 23.0098C2.93945 22.668 2.95312 22.627 3.08301 22.627C3.1582 22.627 3.30859 22.5381 3.41797 22.4288C3.77344 22.0801 3.77344 21.67 3.41797 21.3213L3.22656 21.1231H1.87988C1.02539 21.1231 0.485352 21.1504 0.389648 21.1983C0.123047 21.335 0 21.5469 0 21.8751C0 22.4083 0.287109 22.627 0.977539 22.627H1.42188L1.44922 23.2901C1.4834 24.0694 1.64062 24.4727 2.07129 24.9034C2.49512 25.3272 2.9873 25.5118 3.75977 25.5528L4.42285 25.587L4.53906 25.9766C4.86035 27.0499 5.90625 28.0342 7.04785 28.335C7.54688 28.4717 8.56543 28.4649 9.03027 28.3282C10.0215 28.0342 10.8896 27.3233 11.2998 26.4483C11.4297 26.168 11.5596 25.8604 11.5801 25.7579L11.6211 25.5665H17.5H23.3789L23.4199 25.7579C23.4404 25.8604 23.5703 26.168 23.7002 26.4483C24.1104 27.3233 24.9785 28.0342 25.9697 28.3282C26.4346 28.4649 27.4531 28.4717 27.9521 28.335C29.1006 28.0342 30.1396 27.0499 30.4609 25.9698L30.584 25.5665H31.8145C33.2227 25.5665 33.6123 25.4913 34.1318 25.1153C34.4873 24.8555 34.8223 24.3838 34.9316 23.9942C35.0205 23.6729 35.0137 19.8106 34.9248 19.4141C34.8906 19.2501 34.1592 17.5684 33.3047 15.6885C31.8145 12.4141 31.7393 12.2569 31.3496 11.8467C31.0762 11.5528 30.8096 11.3477 30.4951 11.1905L30.0439 10.9717L27.0566 10.9512L24.0625 10.9307V9.60455C24.0625 8.42877 24.0488 8.23053 23.9189 7.89557C23.7275 7.38971 23.2354 6.89752 22.7295 6.70611C22.3467 6.56256 22.3193 6.56256 12.7285 6.5694C4.375 6.5694 3.06934 6.5899 2.82324 6.67877ZM31.9648 16.4747C32.2451 17.0967 32.5391 17.7325 32.6074 17.8897L32.7373 18.1837H30.2422H27.7539V16.7481V15.3126L29.5996 15.3262L31.4521 15.3467L31.9648 16.4747ZM8.85938 22.8253C9.29688 23.0235 9.7959 23.5157 9.99414 23.9532C10.1035 24.2061 10.1445 24.4317 10.1514 24.7872C10.1582 25.9629 9.18066 26.9337 7.99121 26.9337C6.89746 26.9337 5.87891 25.9151 5.87891 24.8213C5.87891 23.2764 7.46484 22.2169 8.85938 22.8253ZM27.9316 22.9004C29.251 23.5499 29.5244 25.2452 28.4785 26.2911C27.4189 27.3438 25.7373 27.0635 25.0742 25.7237C24.6572 24.876 24.8008 23.9942 25.4502 23.3243C26.1475 22.5997 27.0293 22.4561 27.9316 22.9004Z" fill="currentColor"/>
<path d="M0.37593 19.0176C0.00678919 19.2227 -0.136765 19.8242 0.123 20.1387C0.355422 20.4258 0.457961 20.4395 2.59761 20.4395H4.66206L4.89448 20.207C5.08589 20.0156 5.12691 19.9199 5.12691 19.6875C5.12691 19.4551 5.08589 19.3594 4.89448 19.168L4.66206 18.9355H2.59077C1.20991 18.9424 0.464797 18.9629 0.37593 19.0176Z" fill="currentColor"/>
</g>
<defs>
<clipPath id="iclip0_1972_445">
<rect width="35" height="35" fill="currentColor"/>
</clipPath>
</defs>
</symbol><symbol viewBox="0 0 20 20" fill="none" id="done" xmlns="http://www.w3.org/2000/svg">
<path d="M6.49989 17.8542C6.22127 17.8543 5.94536 17.7995 5.68796 17.6928C5.43057 17.5861 5.19675 17.4297 4.99989 17.2325L0.365723 12.6009L2.13406 10.8334L6.49989 15.1992L17.8657 3.83337L19.6341 5.60087L7.99989 17.2325C7.80303 17.4297 7.56921 17.5861 7.31182 17.6928C7.05442 17.7995 6.77851 17.8543 6.49989 17.8542Z" fill="currentColor"/>
</symbol><symbol viewBox="0 0 20 21" fill="none" id="exit" xmlns="http://www.w3.org/2000/svg">
<g clip-path="url(#kclip0_41_418)">
<path d="M1.66667 18V3C1.66667 2.77899 1.75446 2.56702 1.91074 2.41074C2.06702 2.25446 2.27899 2.16667 2.5 2.16667H6.66667V0.5H2.5C1.83696 0.5 1.20107 0.763392 0.732233 1.23223C0.263392 1.70107 0 2.33696 0 3L0 18C0 18.663 0.263392 19.2989 0.732233 19.7678C1.20107 20.2366 1.83696 20.5 2.5 20.5H6.66667V18.8333H2.5C2.27899 18.8333 2.06702 18.7455 1.91074 18.5893C1.75446 18.433 1.66667 18.221 1.66667 18Z" fill="currentColor"/>
<path d="M19.2692 8.73249L15.4476 4.91083L14.2692 6.08916L17.8226 9.64249L4.16675 9.66666V11.3333L17.8692 11.3092L14.2676 14.9108L15.4459 16.0892L19.2676 12.2675C19.7365 11.7989 20.0001 11.1632 20.0004 10.5003C20.0007 9.83743 19.7377 9.20153 19.2692 8.73249Z" fill="currentColor"/>
</g>
<defs>
<clipPath id="kclip0_41_418">
<rect width="20" height="20" fill="currentColor" transform="translate(0 0.5)"/>
</clipPath>
</defs>
</symbol><symbol viewBox="0 0 22 23" fill="none" id="facebook" xmlns="http://www.w3.org/2000/svg">
<g clip-path="url(#lclip0_2131_656)">
<path d="M12.1602 0.568634C10.1578 0.997484 8.68398 2.33121 8.15117 4.20957C7.91484 5.05012 7.86328 5.50899 7.86328 6.86844V7.87624H6.79766C5.52148 7.87624 5.37539 7.90626 5.06602 8.21503C4.73516 8.54524 4.72656 8.59242 4.72656 10.6466C4.72656 11.7273 4.74375 12.4992 4.77383 12.6236C4.83398 12.9024 5.01016 13.1425 5.26367 13.3012L5.46992 13.4298L6.66445 13.4427L7.86328 13.4556L7.87188 17.5811L7.88477 21.7066L7.9793 21.8825C8.08672 22.0883 8.33594 22.3156 8.53359 22.3971C8.74414 22.4829 12.6973 22.4829 12.9078 22.3971C13.1055 22.3156 13.3547 22.0883 13.4621 21.8825L13.5566 21.7066L13.5695 17.5768L13.5781 13.4513H14.923C15.7438 13.4513 16.3281 13.4341 16.4313 13.4041C16.6375 13.3484 16.9598 13.0525 17.0629 12.8295C17.1359 12.6708 17.1445 12.5035 17.1445 10.6638V8.66961L17.0156 8.44232C16.8566 8.16786 16.6117 7.98345 16.3238 7.92341C16.1992 7.89339 15.5805 7.87624 14.8414 7.87624H13.5695L13.5867 6.96279C13.5953 6.46532 13.6168 6.02361 13.6383 5.98501C13.7113 5.82205 13.8617 5.8006 15.2109 5.77487C16.4484 5.75343 16.5301 5.74914 16.6934 5.65908C16.8738 5.56474 17.0285 5.41035 17.1703 5.19593C17.2477 5.07585 17.252 4.96006 17.2648 3.22322C17.2734 2.20684 17.2648 1.31912 17.252 1.24622C17.2176 1.04895 17.0113 0.765905 16.8008 0.624386L16.616 0.500019L14.5277 0.504307C12.9121 0.504307 12.375 0.521461 12.1602 0.568634ZM15.9414 3.116V4.44544H15.0004C13.9262 4.44544 13.5352 4.4969 13.1184 4.70275C12.6629 4.92575 12.3793 5.35031 12.2891 5.93784C12.259 6.10938 12.2461 6.75265 12.2547 7.49456L12.2676 8.76396L12.3836 8.91405C12.6027 9.20138 12.6242 9.20567 14.3043 9.20567H15.8125V10.6638V12.1176L14.2742 12.1304L12.7316 12.1433L12.577 12.2505C12.4867 12.3105 12.3793 12.4349 12.332 12.5335C12.2461 12.7008 12.2461 12.8037 12.2461 16.9164V21.1277H10.7207H9.19531V16.9293C9.19531 14.0688 9.18242 12.6879 9.14805 12.6065C9.08359 12.4263 8.85586 12.2119 8.67969 12.1647C8.59805 12.1433 7.975 12.1219 7.29609 12.1219H6.05859V10.6638V9.20567H7.35195C8.7957 9.20567 8.83867 9.1971 9.05781 8.91405L9.17383 8.76396L9.19961 7.1086C9.22539 5.34174 9.24688 5.15304 9.47891 4.45402C9.73672 3.68209 10.1836 3.04739 10.7766 2.60567C11.3395 2.19398 12.0098 1.92809 12.8047 1.8123C12.8648 1.80372 13.5953 1.79515 14.4289 1.79086L15.9414 1.78657V3.116Z" fill="currentColor"/>
</g>
<defs>
<clipPath id="lclip0_2131_656">
<rect width="22" height="22" fill="currentColor" transform="translate(0 0.5)"/>
</clipPath>
</defs>
</symbol><symbol viewBox="0 0 20 20" fill="none" id="filter" xmlns="http://www.w3.org/2000/svg">
<g clip-path="url(#mclip0_173_1118)">
<path d="M0.833333 3.95855H3.11333C3.2922 4.61666 3.68264 5.19763 4.22444 5.61182C4.76623 6.02602 5.42927 6.25043 6.11125 6.25043C6.79323 6.25043 7.45627 6.02602 7.99806 5.61182C8.53986 5.19763 8.9303 4.61666 9.10917 3.95855H19.1667C19.3877 3.95855 19.5996 3.87075 19.7559 3.71447C19.9122 3.55819 20 3.34623 20 3.12522C20 2.9042 19.9122 2.69224 19.7559 2.53596C19.5996 2.37968 19.3877 2.29188 19.1667 2.29188H9.10917C8.9303 1.63377 8.53986 1.0528 7.99806 0.638607C7.45627 0.224409 6.79323 0 6.11125 0C5.42927 0 4.76623 0.224409 4.22444 0.638607C3.68264 1.0528 3.2922 1.63377 3.11333 2.29188H0.833333C0.61232 2.29188 0.400358 2.37968 0.244078 2.53596C0.0877974 2.69224 0 2.9042 0 3.12522C0 3.34623 0.0877974 3.55819 0.244078 3.71447C0.400358 3.87075 0.61232 3.95855 0.833333 3.95855ZM6.11083 1.66688C6.39926 1.66688 6.68122 1.75241 6.92104 1.91266C7.16086 2.0729 7.34778 2.30066 7.45816 2.56714C7.56854 2.83361 7.59742 3.12683 7.54115 3.40972C7.48488 3.69261 7.34598 3.95246 7.14203 4.15641C6.93808 4.36036 6.67823 4.49926 6.39534 4.55553C6.11245 4.6118 5.81923 4.58292 5.55275 4.47254C5.28628 4.36216 5.05852 4.17524 4.89827 3.93542C4.73803 3.6956 4.6525 3.41365 4.6525 3.12522C4.65294 2.73858 4.80673 2.3679 5.08012 2.09451C5.35352 1.82111 5.72419 1.66732 6.11083 1.66688Z" fill="currentColor"/>
<path d="M19.1667 9.16672H16.8867C16.7081 8.50846 16.3178 7.92728 15.7761 7.51291C15.2343 7.09854 14.5712 6.87402 13.8892 6.87402C13.2071 6.87402 12.544 7.09854 12.0023 7.51291C11.4605 7.92728 11.0702 8.50846 10.8917 9.16672H0.833333C0.61232 9.16672 0.400358 9.25452 0.244078 9.4108C0.0877974 9.56708 0 9.77904 0 10.0001C0 10.2211 0.0877974 10.433 0.244078 10.5893C0.400358 10.7456 0.61232 10.8334 0.833333 10.8334H10.8917C11.0702 11.4916 11.4605 12.0728 12.0023 12.4872C12.544 12.9016 13.2071 13.1261 13.8892 13.1261C14.5712 13.1261 15.2343 12.9016 15.7761 12.4872C16.3178 12.0728 16.7081 11.4916 16.8867 10.8334H19.1667C19.3877 10.8334 19.5996 10.7456 19.7559 10.5893C19.9122 10.433 20 10.2211 20 10.0001C20 9.77904 19.9122 9.56708 19.7559 9.4108C19.5996 9.25452 19.3877 9.16672 19.1667 9.16672ZM13.8892 11.4584C13.6007 11.4584 13.3188 11.3729 13.079 11.2126C12.8391 11.0524 12.6522 10.8246 12.5418 10.5581C12.4315 10.2917 12.4026 9.99843 12.4589 9.71555C12.5151 9.43266 12.654 9.17281 12.858 8.96885C13.0619 8.7649 13.3218 8.62601 13.6047 8.56974C13.8875 8.51347 14.1808 8.54235 14.4472 8.65273C14.7137 8.76311 14.9415 8.95002 15.1017 9.18985C15.262 9.42967 15.3475 9.71162 15.3475 10.0001C15.3471 10.3867 15.1933 10.7574 14.9199 11.0308C14.6465 11.3042 14.2758 11.4579 13.8892 11.4584Z" fill="currentColor"/>
<path d="M19.1667 16.0419H9.10917C8.9303 15.3838 8.53986 14.8028 7.99806 14.3886C7.45627 13.9744 6.79323 13.75 6.11125 13.75C5.42927 13.75 4.76623 13.9744 4.22444 14.3886C3.68264 14.8028 3.2922 15.3838 3.11333 16.0419H0.833333C0.61232 16.0419 0.400358 16.1297 0.244078 16.286C0.0877974 16.4422 0 16.6542 0 16.8752C0 17.0962 0.0877974 17.3082 0.244078 17.4645C0.400358 17.6208 0.61232 17.7085 0.833333 17.7085H3.11333C3.2922 18.3667 3.68264 18.9476 4.22444 19.3618C4.76623 19.776 5.42927 20.0004 6.11125 20.0004C6.79323 20.0004 7.45627 19.776 7.99806 19.3618C8.53986 18.9476 8.9303 18.3667 9.10917 17.7085H19.1667C19.3877 17.7085 19.5996 17.6208 19.7559 17.4645C19.9122 17.3082 20 17.0962 20 16.8752C20 16.6542 19.9122 16.4422 19.7559 16.286C19.5996 16.1297 19.3877 16.0419 19.1667 16.0419ZM6.11083 18.3335C5.8224 18.3335 5.54045 18.248 5.30063 18.0878C5.0608 17.9275 4.87389 17.6998 4.76351 17.4333C4.65313 17.1668 4.62425 16.8736 4.68052 16.5907C4.73679 16.3078 4.87568 16.048 5.07964 15.844C5.28359 15.6401 5.54344 15.5012 5.82633 15.4449C6.10922 15.3886 6.40244 15.4175 6.66891 15.5279C6.93539 15.6383 7.16315 15.8252 7.32339 16.065C7.48364 16.3048 7.56917 16.5868 7.56917 16.8752C7.56851 17.2618 7.41465 17.6323 7.1413 17.9057C6.86795 18.179 6.4974 18.3329 6.11083 18.3335Z" fill="currentColor"/>
</g>
<defs>
<clipPath id="mclip0_173_1118">
<rect width="20" height="20" fill="currentColor"/>
</clipPath>
</defs>
</symbol><symbol viewBox="0 0 22 23" fill="none" id="instagram" xmlns="http://www.w3.org/2000/svg">
<g clip-path="url(#nclip0_2131_646)">
<path d="M5.17693 0.525784C5.12967 0.538673 4.93631 0.577345 4.74725 0.611721C2.72772 0.994143 0.983184 2.53242 0.308575 4.51758C0.00349655 5.41563 0.0206841 4.98594 0.0206841 11.5C0.0206841 17 0.0249809 17.3867 0.0980278 17.7305C0.605059 20.1066 2.39256 21.8941 4.76873 22.4012C5.11248 22.4742 5.4992 22.4785 10.9992 22.4785C16.4992 22.4785 16.8859 22.4742 17.2297 22.4012C19.6058 21.8941 21.3933 20.1066 21.9004 17.7305C21.9734 17.3867 21.9777 17 21.9777 11.5C21.9777 6 21.9734 5.61328 21.9004 5.26953C21.4535 3.16836 19.9754 1.48399 17.9816 0.809378C17.0836 0.504299 17.5863 0.525784 11.1066 0.517189C7.89256 0.512892 5.2242 0.517189 5.17693 0.525784ZM17.1652 1.94805C18.3812 2.31328 19.3222 2.98789 19.9152 3.91602C20.375 4.63359 20.5941 5.28672 20.6672 6.15899C20.723 6.8293 20.723 16.1707 20.6672 16.841C20.6027 17.6102 20.4738 18.057 20.1172 18.7316C19.5156 19.8789 18.4199 20.7254 17.1137 21.0563C16.5937 21.1895 15.8203 21.2109 10.9992 21.2109C6.17811 21.2109 5.40467 21.1895 4.88475 21.0563C3.166 20.6223 1.9242 19.3805 1.43006 17.6016C1.35701 17.3395 1.35272 16.9828 1.35272 11.5C1.35272 6.01719 1.35701 5.66055 1.43006 5.39844C1.87693 3.8 2.92108 2.63125 4.39061 2.08985C4.63553 2.00391 5.05662 1.89219 5.26287 1.86211C5.33592 1.85352 7.9742 1.84492 11.1281 1.84922C16.8301 1.85781 16.8644 1.85781 17.1652 1.94805Z" fill="currentColor"/>
<path d="M16.6107 3.42196C15.8587 3.66258 15.3775 4.32 15.3775 5.11063C15.3732 6.14617 16.138 6.91102 17.1736 6.90672C17.9728 6.90672 18.6259 6.42117 18.8665 5.66063C19.2962 4.27274 17.9943 2.97938 16.6107 3.42196ZM17.47 4.81414C17.6376 4.98172 17.6634 5.17938 17.5431 5.35555C17.4271 5.52313 17.3497 5.5661 17.1564 5.57039C17.0146 5.57039 16.9501 5.54461 16.847 5.43719C16.5548 5.145 16.7611 4.66805 17.1779 4.66805C17.2853 4.66805 17.3626 4.70672 17.47 4.81414Z" fill="currentColor"/>
<path d="M10.0101 5.54443C7.50503 5.9956 5.61011 7.82178 5.08159 10.2968C4.96987 10.8167 4.96987 12.1831 5.08159 12.703C5.59292 15.0921 7.4062 16.9054 9.79526 17.4167C10.3152 17.5284 11.6816 17.5284 12.2015 17.4167C14.5906 16.9054 16.4039 15.0921 16.9152 12.703C16.9753 12.4194 16.9925 12.1444 16.9925 11.4999C16.9925 10.5761 16.9453 10.2495 16.7046 9.54482C16.0257 7.55107 14.3371 6.05146 12.2445 5.5917C11.8062 5.49287 10.4527 5.46709 10.0101 5.54443ZM11.8449 6.88076C13.757 7.2417 15.2566 8.74131 15.6175 10.6534C15.6992 11.0917 15.6992 11.9081 15.6175 12.3464C15.2566 14.2585 13.757 15.7581 11.8449 16.119C11.4066 16.2007 10.5902 16.2007 10.1519 16.119C8.23979 15.7581 6.74019 14.2585 6.37925 12.3464C6.29761 11.9081 6.29761 11.0917 6.37925 10.6534C6.74019 8.7542 8.2269 7.25889 10.1218 6.88506C10.53 6.80342 11.4238 6.80342 11.8449 6.88076Z" fill="currentColor"/>
</g>
<defs>
<clipPath id="nclip0_2131_646">
<rect width="22" height="22" fill="currentColor" transform="translate(0 0.5)"/>
</clipPath>
</defs>
</symbol><symbol viewBox="0 0 20 21" fill="none" id="list" xmlns="http://www.w3.org/2000/svg">
<g clip-path="url(#oclip0_41_398)">
<path d="M5.83333 5.49999H19.1667C19.3877 5.49999 19.5996 5.4122 19.7559 5.25592C19.9122 5.09964 20 4.88768 20 4.66666C20 4.44565 19.9122 4.23369 19.7559 4.07741C19.5996 3.92113 19.3877 3.83333 19.1667 3.83333H5.83333C5.61232 3.83333 5.40036 3.92113 5.24408 4.07741C5.0878 4.23369 5 4.44565 5 4.66666C5 4.88768 5.0878 5.09964 5.24408 5.25592C5.40036 5.4122 5.61232 5.49999 5.83333 5.49999Z" fill="currentColor"/>
<path d="M19.1667 9.66667H5.83333C5.61232 9.66667 5.40036 9.75447 5.24408 9.91075C5.0878 10.067 5 10.279 5 10.5C5 10.721 5.0878 10.933 5.24408 11.0893C5.40036 11.2455 5.61232 11.3333 5.83333 11.3333H19.1667C19.3877 11.3333 19.5996 11.2455 19.7559 11.0893C19.9122 10.933 20 10.721 20 10.5C20 10.279 19.9122 10.067 19.7559 9.91075C19.5996 9.75447 19.3877 9.66667 19.1667 9.66667Z" fill="currentColor"/>
<path d="M19.1667 15.5H5.83333C5.61232 15.5 5.40036 15.5878 5.24408 15.7441C5.0878 15.9004 5 16.1123 5 16.3333C5 16.5543 5.0878 16.7663 5.24408 16.9226C5.40036 17.0789 5.61232 17.1667 5.83333 17.1667H19.1667C19.3877 17.1667 19.5996 17.0789 19.7559 16.9226C19.9122 16.7663 20 16.5543 20 16.3333C20 16.1123 19.9122 15.9004 19.7559 15.7441C19.5996 15.5878 19.3877 15.5 19.1667 15.5Z" fill="currentColor"/>
<path d="M1.66667 6.33333C2.58714 6.33333 3.33333 5.58714 3.33333 4.66667C3.33333 3.74619 2.58714 3 1.66667 3C0.746192 3 0 3.74619 0 4.66667C0 5.58714 0.746192 6.33333 1.66667 6.33333Z" fill="currentColor"/>
<path d="M1.66667 12.1667C2.58714 12.1667 3.33333 11.4205 3.33333 10.5C3.33333 9.57952 2.58714 8.83333 1.66667 8.83333C0.746192 8.83333 0 9.57952 0 10.5C0 11.4205 0.746192 12.1667 1.66667 12.1667Z" fill="currentColor"/>
<path d="M1.66667 18C2.58714 18 3.33333 17.2538 3.33333 16.3333C3.33333 15.4129 2.58714 14.6667 1.66667 14.6667C0.746192 14.6667 0 15.4129 0 16.3333C0 17.2538 0.746192 18 1.66667 18Z" fill="currentColor"/>
</g>
<defs>
<clipPath id="oclip0_41_398">
<rect width="20" height="20" fill="currentColor" transform="translate(0 0.5)"/>
</clipPath>
</defs>
</symbol><symbol viewBox="0 0 20 21" fill="none" id="mail" xmlns="http://www.w3.org/2000/svg">
<g clip-path="url(#pclip0_41_412)">
<path d="M15.8333 1.33334H4.16667C3.062 1.33467 2.00296 1.77408 1.22185 2.55519C0.440735 3.33631 0.00132321 4.39535 0 5.50001L0 15.5C0.00132321 16.6047 0.440735 17.6637 1.22185 18.4448C2.00296 19.2259 3.062 19.6654 4.16667 19.6667H15.8333C16.938 19.6654 17.997 19.2259 18.7782 18.4448C19.5593 17.6637 19.9987 16.6047 20 15.5V5.50001C19.9987 4.39535 19.5593 3.33631 18.7782 2.55519C17.997 1.77408 16.938 1.33467 15.8333 1.33334ZM4.16667 3.00001H15.8333C16.3323 3.00099 16.8196 3.15127 17.2325 3.43151C17.6453 3.71175 17.9649 4.10913 18.15 4.57251L11.7683 10.955C11.2987 11.4228 10.6628 11.6854 10 11.6854C9.33715 11.6854 8.70131 11.4228 8.23167 10.955L1.85 4.57251C2.03512 4.10913 2.35468 3.71175 2.76754 3.43151C3.1804 3.15127 3.66768 3.00099 4.16667 3.00001ZM15.8333 18H4.16667C3.50363 18 2.86774 17.7366 2.3989 17.2678C1.93006 16.7989 1.66667 16.1631 1.66667 15.5V6.75001L7.05333 12.1333C7.83552 12.9136 8.89521 13.3517 10 13.3517C11.1048 13.3517 12.1645 12.9136 12.9467 12.1333L18.3333 6.75001V15.5C18.3333 16.1631 18.0699 16.7989 17.6011 17.2678C17.1323 17.7366 16.4964 18 15.8333 18Z" fill="currentColor"/>
</g>
<defs>
<clipPath id="pclip0_41_412">
<rect width="20" height="20" fill="currentColor" transform="translate(0 0.5)"/>
</clipPath>
</defs>
</symbol><symbol viewBox="0 0 18 18" fill="none" id="menuAdmin" xmlns="http://www.w3.org/2000/svg">
<path d="M0.514519 1.72268C0.284405 1.88089 0.169348 2.05826 0.145378 2.29317C0.116614 2.56643 0.279611 2.89722 0.514519 3.03145C0.68231 3.12733 0.739838 3.12733 8.99996 3.12733C17.2601 3.12733 17.3176 3.12733 17.4854 3.03145C17.7203 2.89722 17.8833 2.56643 17.8545 2.29317C17.8306 2.05826 17.7155 1.88089 17.4854 1.72268L17.3272 1.61721H8.99996H0.672722L0.514519 1.72268Z" fill="currentColor"/>
<path d="M0.572072 8.31447C0.485779 8.35762 0.35634 8.46788 0.28443 8.55897C0.0974623 8.80346 0.102256 9.20137 0.28443 9.44107C0.552896 9.79583 -0.19018 9.76706 8.99998 9.76706C18.1901 9.76706 17.4471 9.79583 17.7155 9.44107C17.821 9.30684 17.845 9.22054 17.845 9.00002C17.845 8.7747 17.821 8.69799 17.706 8.54459C17.4471 8.209 18.1134 8.23297 8.9904 8.23297C1.43979 8.23297 0.715893 8.24256 0.572072 8.31447Z" fill="currentColor"/>
<path d="M0.634396 14.9207C0.154992 15.0884 -0.0175928 15.7117 0.308402 16.0952C0.567279 16.4068 -0.108679 16.3828 9.01437 16.3828H17.3272L17.4854 16.2726C17.7155 16.1192 17.8306 15.9418 17.8546 15.7069C17.8833 15.4336 17.7203 15.1028 17.4854 14.9686C17.3176 14.8727 17.2505 14.8727 9.0719 14.8631C2.04864 14.8535 0.797393 14.8631 0.634396 14.9207Z" fill="currentColor"/>
</symbol><symbol viewBox="0 0 35 35" fill="none" id="money" xmlns="http://www.w3.org/2000/svg">
<g clip-path="url(#rclip0_2085_374)">
<path d="M21.834 0.13674C21.6836 0.211935 21.4648 0.375998 21.3486 0.499044C21.2324 0.615255 18.8261 3.67092 15.9961 7.28029L10.8554 13.836L5.65329 17.3291C0.861301 20.542 0.430637 20.8428 0.246067 21.1504C-0.00686309 21.5606 -0.0752225 22.2373 0.08884 22.6475C0.211887 22.9346 7.79294 34.2549 8.05271 34.5352C8.36716 34.877 8.77732 35.0137 9.37204 34.9864L9.89157 34.9658L11.6142 33.8174C12.6533 33.127 13.3711 32.6895 13.4189 32.7237C13.4668 32.751 13.7949 32.9971 14.1504 33.2774C15.0049 33.9473 15.2236 34.0498 15.7568 34.0567C16.2558 34.0567 16.6797 33.8926 16.9873 33.5781C17.1035 33.4619 18.4092 31.8145 19.8926 29.9209L22.5927 26.4824L28.1572 22.7569C31.2197 20.7129 33.8447 18.9356 33.9951 18.8057C34.4804 18.375 34.6855 17.7051 34.5283 17.1035C34.4804 16.9395 34.0361 16.2012 33.4961 15.3809C32.9697 14.5879 32.539 13.9112 32.539 13.8701C32.539 13.8291 33.0312 13.1729 33.6328 12.4072C34.2343 11.6416 34.7881 10.8828 34.8633 10.7188C35.1367 10.1104 35.0068 9.38576 34.5215 8.8799C34.1386 8.47658 23.6592 0.293966 23.3037 0.123068C22.9414 -0.0478306 22.2031 -0.0409946 21.834 0.13674ZM24.7256 2.57717C25.7715 3.39065 28.164 5.25686 30.0439 6.71975C31.9238 8.18264 33.5644 9.48147 33.6875 9.61135C34.0498 9.99416 34.0156 10.1104 33.1133 11.2588C32.6758 11.8125 32.2246 12.4004 32.1015 12.5576C31.9853 12.7149 31.8691 12.8447 31.8486 12.8516C31.8281 12.8516 30.625 11.0947 29.1826 8.94826C27.6924 6.71975 26.4756 4.97658 26.3525 4.88772C25.8398 4.51174 25.0879 4.43654 24.5615 4.70315C24.0488 4.96975 19.6875 7.92971 19.6191 8.06643C19.5029 8.28518 19.5439 8.47658 19.7558 8.69533C20.0224 8.96194 20.207 8.92776 20.8291 8.5176L21.2871 8.20998L21.5127 8.47658C22.0664 9.126 23.2217 9.78908 24.2334 10.0488C25.3476 10.336 26.8584 10.2061 27.8769 9.74123C28.082 9.64553 28.2597 9.57717 28.2666 9.58401C28.2734 9.59768 28.8681 10.4795 29.5927 11.5459L30.8984 13.4873L30.4677 13.9453C29.8867 14.5606 29.4492 15.2783 29.1826 16.0645C28.9843 16.6319 28.957 16.8233 28.9297 17.6162C28.8955 18.628 28.9912 19.2227 29.3261 20.0293L29.5176 20.501L21.4101 25.9287L13.3027 31.3565L12.9062 30.9668C12.2158 30.2764 11.3613 29.791 10.3564 29.5244C9.93943 29.4151 9.60447 29.3809 8.95505 29.3809C8.0322 29.3809 7.41697 29.5039 6.69236 29.8252L6.30271 29.9961L5.01755 28.0752C4.30661 27.0225 3.71189 26.1338 3.70505 26.0996C3.69138 26.0723 3.86911 25.8535 4.10154 25.6211C5.62595 24.0762 6.10447 21.6084 5.26364 19.5918C5.15427 19.3321 5.07907 19.0996 5.09275 19.0655C5.11325 19.0381 8.01169 17.083 11.539 14.7315C15.0595 12.3731 18.0127 10.377 18.1015 10.3018C18.4297 10.001 18.1767 9.36526 17.7187 9.36526C17.5752 9.36526 17.0146 9.70705 15.6816 10.6094C14.6699 11.293 13.8769 11.8057 13.9179 11.751C15.7363 9.3926 22.0185 1.41506 22.1552 1.27834C22.5586 0.902365 22.6201 0.929709 24.7256 2.57717ZM25.4912 5.68069C25.6689 5.74221 25.8808 6.01565 26.6601 7.18459C27.1865 7.96389 27.6172 8.62014 27.6172 8.63381C27.6172 8.6885 27.1181 8.87307 26.6601 8.98928C26.0996 9.13283 25.1015 9.13283 24.5342 8.98928C24.2949 8.92776 23.8847 8.77053 23.6181 8.64748C23.1123 8.40139 22.2851 7.76565 22.2851 7.62209C22.2851 7.54006 24.8076 5.7969 25.1015 5.68069C25.1904 5.63967 25.2588 5.61233 25.2656 5.61233C25.2724 5.60549 25.3681 5.63967 25.4912 5.68069ZM32.5322 15.9346C33.3935 17.2129 33.5029 17.4112 33.4687 17.5889C33.4414 17.7051 33.3799 17.8487 33.3183 17.917C33.1543 18.1016 30.4883 19.8516 30.4472 19.8037C30.4267 19.7832 30.331 19.5576 30.2353 19.2979C30.0986 18.9287 30.0508 18.669 30.0234 18.0469C29.9892 17.1104 30.1328 16.4405 30.5429 15.709C30.789 15.2647 31.3974 14.4922 31.5068 14.4922C31.5342 14.4922 31.999 15.1416 32.5322 15.9346ZM4.34079 20.2822C4.85349 21.7862 4.48435 23.5703 3.42478 24.6983L3.02829 25.1153L2.05759 23.666C1.06638 22.1826 0.984348 21.9912 1.19626 21.711C1.31247 21.5606 3.95798 19.7696 4.08103 19.7627C4.12204 19.7559 4.23825 19.9951 4.34079 20.2822ZM19.5097 28.5879C19.4209 28.7246 16.7617 32.1221 16.4199 32.5254C16.0713 32.9424 15.873 33.0449 15.6201 32.9492C15.4287 32.874 14.417 32.1016 14.4101 32.0196C14.4101 31.9785 19.4482 28.5332 19.5371 28.5127C19.5508 28.5059 19.5371 28.5469 19.5097 28.5879ZM10.0967 30.5977C10.664 30.7412 11.2724 31.0489 11.7373 31.418C12.1133 31.7188 12.3457 31.9785 12.291 32.0264C12.2773 32.0332 11.6484 32.4639 10.8896 32.9766C9.41989 33.961 9.20114 34.0498 8.90036 33.7832C8.82517 33.7217 8.35349 33.0518 7.84079 32.293L6.91794 30.9258L7.30075 30.7754C8.23728 30.4199 9.1738 30.3584 10.0967 30.5977Z" fill="currentColor"/>
<path d="M26.0723 13.2275C25.3613 13.6992 24.7256 14.1504 24.6641 14.2324C24.3906 14.5469 24.6504 15.1074 25.0674 15.1074C25.1973 15.1074 25.669 14.834 26.5576 14.2461C27.2754 13.7744 27.8975 13.3369 27.9453 13.2754C27.9863 13.2139 28.0274 13.0566 28.0274 12.9199C28.0274 12.626 27.8838 12.4619 27.5694 12.4004C27.3848 12.3662 27.207 12.4619 26.0723 13.2275Z" fill="currentColor"/>
<path d="M15.8867 13.1593C13.1934 13.7745 11.1973 15.7911 10.6504 18.4503C10.4727 19.3048 10.5068 20.672 10.7256 21.4991C10.8828 22.1007 11.3545 23.1329 11.7031 23.6319C12.3457 24.5685 13.5283 25.5392 14.5537 25.9767C15.1895 26.2501 16.0303 26.4689 16.2422 26.4142C16.5703 26.3321 16.7276 25.8263 16.5225 25.5392C16.4746 25.4776 16.167 25.3478 15.832 25.2521C13.207 24.5138 11.5049 22.1896 11.6416 19.5235C11.7168 17.9786 12.2842 16.755 13.419 15.6817C15.9414 13.2755 20.043 13.7403 21.9776 16.6388C23.1192 18.3546 23.2627 20.3302 22.3877 22.1827C21.752 23.5431 20.7266 24.5001 19.3115 25.0538C18.9766 25.1837 18.6484 25.3409 18.5801 25.4093C18.2861 25.6759 18.5596 26.3185 18.9629 26.3185C19.168 26.3185 19.8447 26.0724 20.3711 25.8058C21.7041 25.1359 22.8389 23.9396 23.4609 22.5724C23.8574 21.6905 24.0147 20.9317 24.0147 19.8243C24.0147 19.1407 23.9805 18.6759 23.9053 18.3409C23.3447 15.9005 21.5742 14.0138 19.1611 13.2892C18.6348 13.1319 18.416 13.1046 17.4317 13.0841C16.6455 13.0704 16.1807 13.0909 15.8867 13.1593Z" fill="currentColor"/>
<path d="M14.4579 15.8936C14.2529 16.0918 14.246 16.2969 14.4306 16.6045L14.5673 16.8369L14.3486 17.2881C13.9179 18.1562 14.082 19.1201 14.7655 19.7012C15.121 20.0088 15.4355 20.0977 16.1738 20.0977H16.7821L17.4657 21.1299C17.8417 21.6973 18.1562 22.1895 18.1698 22.2168C18.204 22.2988 17.7802 22.4219 17.4657 22.4219C17.0419 22.4219 16.8163 22.6201 16.8163 22.9961C16.8163 23.4131 16.953 23.5156 17.5068 23.5156C17.7802 23.5156 18.1152 23.4541 18.4023 23.3584L18.8671 23.2012L19.038 23.4609C19.1884 23.6865 19.2431 23.7207 19.4687 23.7207C20.0155 23.7207 20.2411 23.2969 19.9335 22.832C19.8378 22.6816 19.7558 22.5518 19.7558 22.5312C19.7558 22.5176 19.8583 22.3467 19.9882 22.1621C20.6923 21.1094 20.3095 19.4893 19.2362 18.9629C18.8056 18.751 18.0673 18.6758 17.5888 18.7852L17.2948 18.8535L16.7206 18.0195C16.4062 17.5684 16.1601 17.1787 16.1669 17.1719C16.1806 17.1582 16.372 17.1377 16.5907 17.124C16.8984 17.1035 17.0146 17.0625 17.1034 16.9463C17.2743 16.7412 17.2607 16.3721 17.0829 16.1943C16.953 16.0645 16.8847 16.0576 16.3857 16.085C16.078 16.1055 15.7499 16.1396 15.6542 16.167C15.5107 16.2012 15.456 16.167 15.3261 15.9619C15.1962 15.75 15.1415 15.7227 14.8954 15.7227C14.6972 15.7227 14.5741 15.7705 14.4579 15.8936ZM15.9208 19.0586C15.5585 19.1201 15.1279 18.5117 15.2099 18.0674L15.2509 17.8213L15.6611 18.4297C16.037 18.9902 16.0507 19.0381 15.9208 19.0586ZM18.5527 19.8516C19.0585 20.0635 19.3525 20.6582 19.2089 21.1914C19.1679 21.3418 19.1132 21.4648 19.079 21.4648C18.9902 21.4648 17.9716 19.8926 18.0126 19.8242C18.0741 19.7285 18.2861 19.7422 18.5527 19.8516Z" fill="currentColor"/>
<path d="M7.99807 25.3271C7.30081 25.7988 6.67874 26.2432 6.61721 26.3252C6.34378 26.6533 6.58987 27.1387 7.03421 27.1387C7.25296 27.1387 7.49905 27.002 8.59964 26.2637C10.001 25.334 10.1104 25.2178 9.96682 24.8145C9.93264 24.6982 9.84378 24.5752 9.77542 24.541C9.48147 24.3838 9.26956 24.4795 7.99807 25.3271Z" fill="currentColor"/>
</g>
<defs>
<clipPath id="rclip0_2085_374">
<rect width="35" height="35" fill="currentColor"/>
</clipPath>
</defs>
</symbol><symbol viewBox="0 0 20 21" fill="none" id="passwordVisible" xmlns="http://www.w3.org/2000/svg">
<path d="M3.07422 2.04829C2.8125 2.18501 2.68359 2.50141 2.77344 2.79829C2.8125 2.93501 3.03125 3.1772 4.18359 4.33345L5.55078 5.70454L5.04688 6.02095C3.48828 7.00142 2.12891 8.18501 0.992188 9.54438C0.644531 9.95845 0.625 9.99751 0.625 10.2592C0.625 10.4233 0.648438 10.5053 0.726562 10.6225C1.08594 11.1538 2.35547 12.4624 3.18359 13.1538C5.48047 15.0717 7.73828 16.0288 9.94531 16.0288C11.332 16.0249 12.6797 15.6967 13.9727 15.0483L14.5859 14.7397L15.9375 16.0834C17.125 17.2709 17.3047 17.435 17.4531 17.4741C17.7656 17.5561 18.0664 17.4233 18.1992 17.1459C18.2461 17.0561 18.2812 16.9428 18.2812 16.8999C18.2812 16.5952 18.5547 16.8764 11 9.31392C6.71875 5.02876 3.71875 2.0522 3.64453 2.02095C3.46875 1.94673 3.25 1.95454 3.07422 2.04829ZM7.87109 8.46235C7.625 8.73188 7.42578 9.09907 7.30078 9.50532C7.18359 9.88423 7.17188 10.5952 7.28125 10.9897C7.54297 11.9545 8.28906 12.7006 9.25781 12.9663C9.60547 13.06 10.3203 13.0639 10.6641 12.9702C11.0469 12.8686 11.5156 12.6225 11.7812 12.3803L12.0195 12.1655L12.8125 12.9624C13.25 13.3999 13.6016 13.767 13.5938 13.7749C13.582 13.7866 13.4258 13.8686 13.2461 13.9584C11.9102 14.6264 10.2852 14.892 8.94531 14.6655C7.26953 14.3764 5.52734 13.4545 3.76953 11.9272C3.35938 11.5717 2.10938 10.31 2.10938 10.2553C2.10938 10.1928 3.01562 9.23579 3.44531 8.85298C4.28516 8.09517 5.00781 7.56001 5.9375 6.99751L6.50391 6.65376L7.29297 7.44282L8.08203 8.22798L7.87109 8.46235ZM10.9844 11.353C10.9258 11.4116 10.7656 11.517 10.625 11.5874C10.3945 11.7006 10.3398 11.7124 10 11.7124C9.67969 11.7124 9.59766 11.6967 9.40625 11.6069C9.09375 11.4624 8.8125 11.1889 8.66016 10.8764C8.54688 10.642 8.53516 10.5874 8.53516 10.2475C8.53516 9.9311 8.55078 9.84517 8.63672 9.66157C8.69141 9.54048 8.79688 9.37642 8.86719 9.29438L8.99609 9.14985L10.043 10.1928L11.0938 11.2397L10.9844 11.353Z" fill="currentColor"/>
<path d="M9.00358 4.50922C8.87468 4.52875 8.67546 4.5639 8.56218 4.58734C7.93718 4.71625 7.81999 5.52094 8.3903 5.79828C8.55827 5.88031 8.56608 5.88031 9.02702 5.81781C11.32 5.48969 13.6208 6.34906 16.0895 8.44281C16.5505 8.83344 17.8903 10.1772 17.8903 10.2475C17.8903 10.3139 16.6208 11.5912 16.1716 11.9741C15.5856 12.478 15.488 12.6928 15.6755 13.06C15.7926 13.2944 15.9723 13.4116 16.2184 13.4116C16.4684 13.4116 16.5622 13.3569 17.0622 12.935C17.8044 12.2983 19.1559 10.8686 19.3317 10.5327C19.3551 10.4858 19.3747 10.353 19.3747 10.2358C19.3747 10.0717 19.3512 9.98969 19.2731 9.8725C19.0739 9.57562 18.4958 8.93109 17.8903 8.33344C15.8395 6.29437 13.6012 4.99359 11.4333 4.57953C11.0856 4.51312 10.8161 4.49359 10.1169 4.48187C9.63249 4.47797 9.13249 4.48969 9.00358 4.50922Z" fill="currentColor"/>
</symbol><symbol viewBox="0 0 20 20" fill="none" id="search" xmlns="http://www.w3.org/2000/svg">
<g clip-path="url(#tclip0_173_1129)">
<path d="M19.9998 18.8215L14.7815 13.6032C16.137 11.9453 16.8035 9.82989 16.643 7.69445C16.4826 5.55901 15.5075 3.56693 13.9195 2.13025C12.3314 0.693577 10.252 -0.0777715 8.11119 -0.024245C5.97039 0.0292815 3.93207 0.903588 2.41783 2.41783C0.903588 3.93207 0.0292815 5.97039 -0.024245 8.11119C-0.0777715 10.252 0.693577 12.3314 2.13025 13.9195C3.56693 15.5075 5.55901 16.4826 7.69445 16.643C9.82989 16.8035 11.9453 16.137 13.6032 14.7815L18.8215 19.9998L19.9998 18.8215ZM8.33315 14.9998C7.01461 14.9998 5.72568 14.6088 4.62935 13.8763C3.53302 13.1437 2.67854 12.1025 2.17395 10.8844C1.66937 9.6662 1.53735 8.32576 1.79458 7.03255C2.05182 5.73934 2.68676 4.55146 3.61911 3.61911C4.55146 2.68676 5.73934 2.05182 7.03255 1.79458C8.32576 1.53735 9.6662 1.66937 10.8844 2.17395C12.1025 2.67854 13.1437 3.53302 13.8763 4.62935C14.6088 5.72568 14.9998 7.01461 14.9998 8.33315C14.9978 10.1007 14.2948 11.7952 13.045 13.045C11.7952 14.2948 10.1007 14.9978 8.33315 14.9998Z" fill="currentColor"/>
</g>
<defs>
<clipPath id="tclip0_173_1129">
<rect width="20" height="20" fill="currentColor"/>
</clipPath>
</defs>
</symbol><symbol viewBox="0 0 20 21" fill="none" id="setting" xmlns="http://www.w3.org/2000/svg">
<g clip-path="url(#uclip0_41_407)">
<path d="M10.0001 7.16667C9.34081 7.16667 8.69635 7.36217 8.14818 7.72844C7.60002 8.09471 7.17278 8.61531 6.92048 9.22439C6.66819 9.83348 6.60218 10.5037 6.7308 11.1503C6.85942 11.7969 7.17689 12.3909 7.64306 12.857C8.10924 13.3232 8.70318 13.6407 9.34978 13.7693C9.99639 13.8979 10.6666 13.8319 11.2757 13.5796C11.8848 13.3273 12.4054 12.9001 12.7716 12.3519C13.1379 11.8037 13.3334 11.1593 13.3334 10.5C13.3334 9.61595 12.9822 8.7681 12.3571 8.14298C11.732 7.51786 10.8841 7.16667 10.0001 7.16667ZM10.0001 12.1667C9.67045 12.1667 9.34822 12.0689 9.07413 11.8858C8.80005 11.7027 8.58643 11.4424 8.46028 11.1378C8.33414 10.8333 8.30113 10.4982 8.36544 10.1749C8.42975 9.85155 8.58848 9.55458 8.82157 9.32149C9.05466 9.08841 9.35163 8.92967 9.67493 8.86536C9.99823 8.80105 10.3333 8.83406 10.6379 8.96021C10.9424 9.08635 11.2027 9.29997 11.3859 9.57406C11.569 9.84814 11.6668 10.1704 11.6668 10.5C11.6668 10.942 11.4912 11.366 11.1786 11.6785C10.866 11.9911 10.4421 12.1667 10.0001 12.1667Z" fill="currentColor"/>
<path d="M17.7449 12.0833L17.3749 11.87C17.5415 10.9637 17.5415 10.0346 17.3749 9.12833L17.7449 8.915C18.0294 8.75085 18.2789 8.53226 18.4789 8.27172C18.679 8.01118 18.8257 7.71378 18.9109 7.39651C18.996 7.07925 19.0178 6.74832 18.975 6.42263C18.9322 6.09694 18.8257 5.78286 18.6616 5.49833C18.4974 5.2138 18.2788 4.96439 18.0183 4.76434C17.7578 4.56428 17.4604 4.41751 17.1431 4.33239C16.8258 4.24726 16.4949 4.22547 16.1692 4.26824C15.8435 4.31101 15.5294 4.41751 15.2449 4.58167L14.8741 4.79583C14.1737 4.19743 13.3688 3.73354 12.4999 3.4275V3C12.4999 2.33696 12.2365 1.70107 11.7677 1.23223C11.2988 0.763392 10.663 0.5 9.99991 0.5C9.33687 0.5 8.70099 0.763392 8.23215 1.23223C7.76331 1.70107 7.49991 2.33696 7.49991 3V3.4275C6.63107 3.73464 5.82645 4.19967 5.12658 4.79917L4.75408 4.58333C4.17944 4.25181 3.49665 4.16214 2.8559 4.33405C2.21515 4.50596 1.66893 4.92536 1.33741 5.5C1.00589 6.07464 0.916224 6.75743 1.08813 7.39818C1.26004 8.03893 1.67944 8.58515 2.25408 8.91667L2.62408 9.13C2.45751 10.0363 2.45751 10.9654 2.62408 11.8717L2.25408 12.085C1.67944 12.4165 1.26004 12.9627 1.08813 13.6035C0.916224 14.2442 1.00589 14.927 1.33741 15.5017C1.66893 16.0763 2.21515 16.4957 2.8559 16.6676C3.49665 16.8395 4.17944 16.7499 4.75408 16.4183L5.12491 16.2042C5.82555 16.8027 6.63073 17.2666 7.49991 17.5725V18C7.49991 18.663 7.76331 19.2989 8.23215 19.7678C8.70099 20.2366 9.33687 20.5 9.99991 20.5C10.663 20.5 11.2988 20.2366 11.7677 19.7678C12.2365 19.2989 12.4999 18.663 12.4999 18V17.5725C13.3688 17.2654 14.1734 16.8003 14.8732 16.2008L15.2457 16.4158C15.8204 16.7474 16.5032 16.837 17.1439 16.6651C17.7847 16.4932 18.3309 16.0738 18.6624 15.4992C18.9939 14.9245 19.0836 14.2417 18.9117 13.601C18.7398 12.9602 18.3204 12.414 17.7457 12.0825L17.7449 12.0833ZM15.6216 8.93667C15.9038 9.95922 15.9038 11.0391 15.6216 12.0617C15.5723 12.2396 15.5835 12.4289 15.6535 12.5998C15.7235 12.7707 15.8483 12.9135 16.0082 13.0058L16.9116 13.5275C17.1031 13.638 17.2429 13.8201 17.3001 14.0336C17.3574 14.2472 17.3275 14.4747 17.217 14.6663C17.1065 14.8578 16.9244 14.9975 16.7109 15.0548C16.4973 15.1121 16.2698 15.0822 16.0782 14.9717L15.1732 14.4483C15.0132 14.3556 14.8268 14.3188 14.6435 14.3437C14.4601 14.3686 14.2903 14.4538 14.1607 14.5858C13.419 15.343 12.4846 15.8833 11.4582 16.1483C11.2791 16.1944 11.1204 16.2987 11.0071 16.4449C10.8938 16.5911 10.8323 16.7709 10.8324 16.9558V18C10.8324 18.221 10.7446 18.433 10.5883 18.5893C10.4321 18.7455 10.2201 18.8333 9.99908 18.8333C9.77807 18.8333 9.5661 18.7455 9.40983 18.5893C9.25354 18.433 9.16575 18.221 9.16575 18V16.9567C9.16584 16.7717 9.10439 16.592 8.99108 16.4458C8.87778 16.2996 8.71905 16.1952 8.53991 16.1492C7.51354 15.8831 6.57935 15.3416 5.83825 14.5833C5.70868 14.4513 5.53886 14.3661 5.35554 14.3412C5.17223 14.3163 4.98584 14.3531 4.82575 14.4458L3.92241 14.9683C3.8276 15.0239 3.72274 15.0602 3.61385 15.0751C3.50496 15.09 3.39421 15.0832 3.28796 15.0551C3.18171 15.027 3.08207 14.9782 2.99476 14.9114C2.90746 14.8446 2.83423 14.7613 2.77928 14.6661C2.72433 14.5709 2.68874 14.4658 2.67458 14.3568C2.66041 14.2479 2.66794 14.1372 2.69674 14.0311C2.72553 13.925 2.77502 13.8257 2.84236 13.7389C2.90969 13.652 2.99354 13.5793 3.08908 13.525L3.99241 13.0033C4.15237 12.911 4.27714 12.7682 4.34713 12.5973C4.41712 12.4264 4.42836 12.2371 4.37908 12.0592C4.09688 11.0366 4.09688 9.95672 4.37908 8.93417C4.42747 8.75657 4.41569 8.56795 4.34559 8.39774C4.27549 8.22754 4.15101 8.08534 3.99158 7.99333L3.08825 7.47167C2.89674 7.36116 2.75697 7.1791 2.6997 6.96555C2.64242 6.75199 2.67232 6.52442 2.78283 6.33292C2.89334 6.14141 3.07539 6.00164 3.28895 5.94437C3.50251 5.88709 3.73007 5.91699 3.92158 6.0275L4.82658 6.55083C4.98623 6.64376 5.17223 6.68101 5.35535 6.65672C5.53848 6.63244 5.70834 6.548 5.83825 6.41667C6.57999 5.65945 7.51444 5.11918 8.54075 4.85417C8.72044 4.80797 8.87958 4.70313 8.99294 4.55625C9.10631 4.40938 9.16741 4.22887 9.16658 4.04333V3C9.16658 2.77899 9.25438 2.56702 9.41066 2.41074C9.56694 2.25446 9.7789 2.16667 9.99991 2.16667C10.2209 2.16667 10.4329 2.25446 10.5892 2.41074C10.7455 2.56702 10.8332 2.77899 10.8332 3V4.04333C10.8332 4.2283 10.8946 4.40804 11.0079 4.55423C11.1212 4.70043 11.2799 4.80478 11.4591 4.85083C12.4858 5.11679 13.4202 5.65824 14.1616 6.41667C14.2911 6.54872 14.461 6.63391 14.6443 6.65881C14.8276 6.6837 15.014 6.64689 15.1741 6.55417L16.0774 6.03167C16.1722 5.97609 16.2771 5.93981 16.386 5.92492C16.4949 5.91003 16.6056 5.91683 16.7119 5.94492C16.8181 5.97301 16.9178 6.02184 17.0051 6.08859C17.0924 6.15535 17.1656 6.23872 17.2206 6.33389C17.2755 6.42907 17.3111 6.53417 17.3253 6.64316C17.3394 6.75214 17.3319 6.86285 17.3031 6.96891C17.2743 7.07497 17.2248 7.17429 17.1575 7.26114C17.0901 7.348 17.0063 7.42068 16.9107 7.475L16.0074 7.99667C15.8483 8.08892 15.7242 8.23123 15.6544 8.40141C15.5846 8.57159 15.573 8.76008 15.6216 8.9375V8.93667Z" fill="currentColor"/>
</g>
<defs>
<clipPath id="uclip0_41_407">
<rect width="20" height="20" fill="currentColor" transform="translate(0 0.5)"/>
</clipPath>
</defs>
</symbol><symbol viewBox="0 0 22 23" fill="none" id="telegram" xmlns="http://www.w3.org/2000/svg">
<path d="M19.9838 2.22751C19.9022 2.249 18.9053 2.62283 17.7709 3.05681C16.6322 3.4908 12.3783 5.11502 8.31349 6.66619C4.24864 8.21736 0.828329 9.5365 0.71661 9.60095C0.44161 9.75134 0.183797 10.0049 0.0806723 10.224C-0.0224527 10.4603 -0.0267496 10.8642 0.0806723 11.092C0.188094 11.3283 0.544735 11.6377 0.867 11.7752C1.01739 11.8396 2.01427 12.1404 3.08848 12.4455C4.15841 12.7506 5.04356 13.0084 5.04786 13.0127C5.05216 13.0213 5.53341 14.3963 6.11778 16.0763C6.70216 17.7521 7.23497 19.2217 7.29513 19.3377C7.48849 19.6943 7.75059 19.9478 8.10723 20.124C8.40372 20.2701 8.45958 20.283 8.80333 20.283C9.24161 20.283 9.55528 20.1842 9.89474 19.9392C10.0193 19.849 10.6553 19.2818 11.3127 18.6802C11.9701 18.0744 12.5201 17.576 12.5373 17.5717C12.5545 17.5631 13.3709 18.2076 14.3506 18.9982C15.5838 19.9951 16.2283 20.4849 16.4346 20.5881C17.165 20.9533 17.9041 20.8459 18.4154 20.3002C18.815 19.8748 18.7248 20.2572 20.435 11.8138C21.9904 4.15252 22.0033 4.08377 21.9904 3.63689C21.9775 3.22009 21.9647 3.16423 21.8272 2.91501C21.5479 2.39509 21.1483 2.17166 20.5037 2.18025C20.2975 2.18025 20.0611 2.20173 19.9838 2.22751ZM20.667 3.74002C20.667 3.95916 17.6463 18.9209 17.5475 19.183C17.5088 19.2861 17.4315 19.3978 17.3756 19.4365C17.2768 19.4967 17.2596 19.4967 17.0662 19.4021C16.9545 19.3463 15.4635 18.1689 13.749 16.7896C12.0346 15.4103 10.6295 14.2802 10.6295 14.276C10.6252 14.2717 12.142 12.656 14.0025 10.6752C15.8674 8.69861 17.4143 7.02283 17.4443 6.94978C17.5217 6.75642 17.4787 6.45994 17.3412 6.28377C17.2123 6.10759 16.9889 6.02595 16.7397 6.05603C16.6193 6.06892 15.6783 6.52869 13.749 7.51267C6.68067 11.1306 5.53341 11.715 5.48614 11.715C5.4088 11.7193 1.71778 10.6666 1.71778 10.6408C1.71778 10.6279 3.95645 9.76423 6.69356 8.72009C9.42638 7.67595 13.5986 6.08181 15.9619 5.17947C18.3252 4.27712 20.319 3.52517 20.3877 3.50798C20.5897 3.46072 20.667 3.52517 20.667 3.74002ZM13.5256 9.20994C13.4654 9.27869 12.4471 10.3658 11.2568 11.6291C10.0709 12.8881 9.06974 13.9838 9.03966 14.0568C9.00528 14.1256 8.79473 14.9377 8.5713 15.8615C8.34356 16.781 8.14591 17.5717 8.12872 17.6146C8.10723 17.6619 7.81934 16.8927 7.23927 15.2299C6.77091 13.8806 6.40138 12.7677 6.42286 12.7592C6.44864 12.7506 8.07286 11.9256 10.0322 10.9201C11.9959 9.91892 13.6072 9.09822 13.6158 9.09392C13.6287 9.09392 13.5858 9.14548 13.5256 9.20994ZM10.7541 16.1021C11.1365 16.4072 11.4545 16.6736 11.4588 16.6908C11.4631 16.708 10.9604 17.1849 10.3459 17.7478C9.73145 18.3107 9.23731 18.7361 9.2502 18.6931C9.26309 18.6502 9.44356 17.9197 9.64981 17.0732C9.86036 16.231 10.0365 15.5392 10.0451 15.5392C10.0537 15.5392 10.3717 15.7927 10.7541 16.1021Z" fill="currentColor"/>
</symbol></svg>