<svg width="162" height="40" viewBox="0 0 162 40" fill="none" xmlns="http://www.w3.org/2000/svg">
<path d="M2.00977 0V40" stroke="#FF0000" stroke-width="4"/>
<path d="M24.6787 30V8.56H30.8845C35.3219 8.56 38.5052 11.408 38.5052 15.28C38.5052 17.904 36.9939 20.176 34.518 21.232L39.9521 30H35.4505L30.563 22H28.5051V30H24.6787ZM28.5051 18.48H30.7238C33.1354 18.48 34.6788 17.232 34.6788 15.28C34.6788 13.36 33.1032 12.08 30.7238 12.08H28.5051V18.48ZM51.5303 30.384C46.6107 30.384 43.1701 26.704 43.1701 21.328V8.56H46.9965V21.2C46.9965 24.56 48.8615 26.8 51.6589 26.8C54.4242 26.8 56.2892 24.56 56.2892 21.2V8.56H60.0513V21.328C60.0513 26.672 56.4821 30.384 51.5303 30.384ZM65.029 30V8.56H73.0355C79.4664 8.56 84.3218 13.168 84.3218 19.28C84.3218 25.424 79.4986 30 73.0355 30H65.029ZM68.8554 26.416H73.0677C77.2478 26.416 80.3024 23.408 80.3024 19.28C80.3024 15.152 77.2478 12.144 73.0677 12.144H68.8554V26.416ZM97.9786 30.384C91.5799 30.384 86.8853 25.744 86.8853 19.408C86.8853 13.008 91.7085 8.176 97.9465 8.176C101.098 8.176 104.024 9.424 106.082 11.696L103.445 14.384C102.063 12.784 100.069 11.888 97.8822 11.888C93.8307 11.888 90.9046 14.96 90.9046 19.248C90.9046 23.568 93.895 26.672 98.1072 26.672C100.39 26.672 102.384 25.744 103.735 24.08L106.339 26.704C104.314 29.072 101.388 30.384 97.9786 30.384ZM106.807 30L115.52 8.08H117.128L125.778 30H121.662L120.119 25.904H112.369L110.826 30H106.807ZM113.72 22.384H118.768L116.26 15.696L113.72 22.384ZM128.835 30V8.56H135.041C139.479 8.56 142.662 11.408 142.662 15.28C142.662 17.904 141.151 20.176 138.675 21.232L144.109 30H139.607L134.72 22H132.662V30H128.835ZM132.662 18.48H134.881C137.292 18.48 138.836 17.232 138.836 15.28C138.836 13.36 137.26 12.08 134.881 12.08H132.662V18.48ZM152.89 30.48C149.739 30.48 147.038 29.008 145.398 26.352L148.228 24.016C149.45 26.096 151.057 27.024 152.954 27.024C154.916 27.024 156.202 26 156.202 24.368C156.202 22.96 155.237 22 152.569 20.88C148.517 19.184 146.716 17.168 146.716 14.256C146.716 10.704 149.45 8.176 153.308 8.176C155.945 8.176 158.292 9.36 159.996 11.536L157.327 13.904C156.138 12.4 154.819 11.632 153.276 11.632C151.604 11.632 150.543 12.56 150.543 14.032C150.543 15.408 151.507 16.304 154.048 17.36C158.228 19.12 160.028 21.2 160.028 24.112C160.028 27.856 157.07 30.48 152.89 30.48Z" fill="white"/>
</svg>
