<svg width="182" height="45" viewBox="0 0 182 45" fill="none" xmlns="http://www.w3.org/2000/svg">
<path d="M2.26099 0V45" stroke="#FF0000" stroke-width="4"/>
<path d="M27.7634 33.75V9.63003H34.745C39.737 9.63003 43.3182 12.834 43.3182 17.19C43.3182 20.142 41.618 22.698 38.8326 23.886L44.946 33.75H39.8817L34.3833 24.75H32.0681V33.75H27.7634ZM32.0681 20.79H34.5641C37.2772 20.79 39.0135 19.386 39.0135 17.19C39.0135 15.03 37.241 13.59 34.5641 13.59H32.0681V20.79ZM57.9715 34.182C52.4369 34.182 48.5663 30.042 48.5663 23.994V9.63003H52.871V23.85C52.871 27.63 54.969 30.15 58.1162 30.15C61.2271 30.15 63.3252 27.63 63.3252 23.85V9.63003H67.5576V23.994C67.5576 30.006 63.5423 34.182 57.9715 34.182ZM73.1575 33.75V9.63003H82.1648C89.3996 9.63003 94.8619 14.814 94.8619 21.69C94.8619 28.602 89.4358 33.75 82.1648 33.75H73.1575ZM77.4622 29.718H82.201C86.9036 29.718 90.3401 26.334 90.3401 21.69C90.3401 17.046 86.9036 13.662 82.201 13.662H77.4622V29.718ZM110.226 34.182C103.027 34.182 97.7458 28.962 97.7458 21.834C97.7458 14.634 103.172 9.19803 110.19 9.19803C113.735 9.19803 117.027 10.602 119.342 13.158L116.376 16.182C114.82 14.382 112.577 13.374 110.117 13.374C105.559 13.374 102.268 16.83 102.268 21.654C102.268 26.514 105.632 30.006 110.371 30.006C112.939 30.006 115.182 28.962 116.702 27.09L119.632 30.042C117.353 32.706 114.061 34.182 110.226 34.182ZM120.157 33.75L129.96 9.09003H131.769L141.5 33.75H136.87L135.133 29.142H126.415L124.679 33.75H120.157ZM127.935 25.182H133.614L130.792 17.658L127.935 25.182ZM144.94 33.75V9.63003H151.921C156.913 9.63003 160.495 12.834 160.495 17.19C160.495 20.142 158.794 22.698 156.009 23.886L162.122 33.75H157.058L151.56 24.75H149.244V33.75H144.94ZM149.244 20.79H151.74C154.454 20.79 156.19 19.386 156.19 17.19C156.19 15.03 154.417 13.59 151.74 13.59H149.244V20.79ZM172.001 34.29C168.456 34.29 165.418 32.634 163.573 29.646L166.756 27.018C168.131 29.358 169.939 30.402 172.074 30.402C174.28 30.402 175.727 29.25 175.727 27.414C175.727 25.83 174.642 24.75 171.64 23.49C167.082 21.582 165.056 19.314 165.056 16.038C165.056 12.042 168.131 9.19803 172.472 9.19803C175.438 9.19803 178.078 10.53 179.996 12.978L176.993 15.642C175.655 13.95 174.172 13.086 172.435 13.086C170.554 13.086 169.361 14.13 169.361 15.786C169.361 17.334 170.446 18.342 173.304 19.53C178.006 21.51 180.032 23.85 180.032 27.126C180.032 31.338 176.704 34.29 172.001 34.29Z" fill="#272121"/>
</svg>
