<svg width="18" height="18" viewBox="0 0 18 18" fill="none" xmlns="http://www.w3.org/2000/svg">
<path d="M0.514458 1.72267C0.284344 1.88087 0.169287 2.05825 0.145317 2.29316C0.116553 2.56642 0.27955 2.89721 0.514458 3.03144C0.682249 3.12732 0.739777 3.12732 8.9999 3.12732C17.26 3.12732 17.3175 3.12732 17.4853 3.03144C17.7202 2.89721 17.8832 2.56642 17.8545 2.29316C17.8305 2.05825 17.7155 1.88087 17.4853 1.72267L17.3271 1.6172H8.9999H0.672661L0.514458 1.72267Z" fill="#272121"/>
<path d="M0.57198 8.31443C0.485688 8.35757 0.356249 8.46783 0.284338 8.55892C0.0973708 8.80342 0.102165 9.20132 0.284338 9.44102C0.552804 9.79578 -0.190271 9.76702 8.99989 9.76702C18.1901 9.76702 17.447 9.79578 17.7154 9.44102C17.8209 9.30679 17.8449 9.2205 17.8449 8.99997C17.8449 8.77465 17.8209 8.69795 17.7059 8.54454C17.447 8.20896 18.1134 8.23293 8.9903 8.23293C1.4397 8.23293 0.715801 8.24252 0.57198 8.31443Z" fill="#272121"/>
<path d="M0.634304 14.9206C0.154901 15.0884 -0.0176844 15.7116 0.30831 16.0952C0.567188 16.4068 -0.108771 16.3828 9.01428 16.3828H17.3271L17.4853 16.2726C17.7154 16.1191 17.8305 15.9418 17.8545 15.7069C17.8832 15.4336 17.7202 15.1028 17.4853 14.9686C17.3175 14.8727 17.2504 14.8727 9.07181 14.8631C2.04854 14.8535 0.797301 14.8631 0.634304 14.9206Z" fill="#272121"/>
</svg>
